<svg width="286" height="63" viewBox="0 0 286 63" fill="none" xmlns="http://www.w3.org/2000/svg">
<g filter="url(#filter0_d)">
<path d="M26.8867 45.0352L41.5117 2.8125H48.8945L29.9102 54H23.9336L4.98438 2.8125H12.332L26.8867 45.0352ZM61.832 54H55.3281V15.9609H61.832V54ZM54.8008 5.87109C54.8008 4.81641 55.1172 3.92578 55.75 3.19922C56.4062 2.47266 57.3672 2.10938 58.6328 2.10938C59.8984 2.10938 60.8594 2.47266 61.5156 3.19922C62.1719 3.92578 62.5 4.81641 62.5 5.87109C62.5 6.92578 62.1719 7.80469 61.5156 8.50781C60.8594 9.21094 59.8984 9.5625 58.6328 9.5625C57.3672 9.5625 56.4062 9.21094 55.75 8.50781C55.1172 7.80469 54.8008 6.92578 54.8008 5.87109ZM81.0977 6.75V15.9609H88.1992V20.9883H81.0977V44.5781C81.0977 46.1016 81.4141 47.25 82.0469 48.0234C82.6797 48.7734 83.7578 49.1484 85.2812 49.1484C86.0312 49.1484 87.0625 49.0078 88.375 48.7266V54C86.6641 54.4688 85 54.7031 83.3828 54.7031C80.4766 54.7031 78.2852 53.8242 76.8086 52.0664C75.332 50.3086 74.5938 47.8125 74.5938 44.5781V20.9883H67.668V15.9609H74.5938V6.75H81.0977ZM119.312 54C118.938 53.25 118.633 51.9141 118.398 49.9922C115.375 53.1328 111.766 54.7031 107.57 54.7031C103.82 54.7031 100.738 53.6484 98.3242 51.5391C95.9336 49.4062 94.7383 46.7109 94.7383 43.4531C94.7383 39.4922 96.2383 36.4219 99.2383 34.2422C102.262 32.0391 106.504 30.9375 111.965 30.9375H118.293V27.9492C118.293 25.6758 117.613 23.8711 116.254 22.5352C114.895 21.1758 112.891 20.4961 110.242 20.4961C107.922 20.4961 105.977 21.082 104.406 22.2539C102.836 23.4258 102.051 24.8438 102.051 26.5078H95.5117C95.5117 24.6094 96.1797 22.7812 97.5156 21.0234C98.875 19.2422 100.703 17.8359 103 16.8047C105.32 15.7734 107.863 15.2578 110.629 15.2578C115.012 15.2578 118.445 16.3594 120.93 18.5625C123.414 20.7422 124.703 23.7539 124.797 27.5977V45.1055C124.797 48.5977 125.242 51.375 126.133 53.4375V54H119.312ZM108.52 49.043C110.559 49.043 112.492 48.5156 114.32 47.4609C116.148 46.4062 117.473 45.0352 118.293 43.3477V35.543H113.195C105.227 35.543 101.242 37.875 101.242 42.5391C101.242 44.5781 101.922 46.1719 103.281 47.3203C104.641 48.4688 106.387 49.043 108.52 49.043Z" fill="#8BFB57"/>
<path d="M175.352 54H168.566V30.3398H142.762V54H136.012V2.8125H142.762V24.8203H168.566V2.8125H175.352V54ZM202.105 54.7031C196.949 54.7031 192.754 53.0156 189.52 49.6406C186.285 46.2422 184.668 41.707 184.668 36.0352V34.8398C184.668 31.0664 185.383 27.7031 186.812 24.75C188.266 21.7734 190.281 19.4531 192.859 17.7891C195.461 16.1016 198.273 15.2578 201.297 15.2578C206.242 15.2578 210.086 16.8867 212.828 20.1445C215.57 23.4023 216.941 28.0664 216.941 34.1367V36.8438H191.172C191.266 40.5938 192.355 43.6289 194.441 45.9492C196.551 48.2461 199.223 49.3945 202.457 49.3945C204.754 49.3945 206.699 48.9258 208.293 47.9883C209.887 47.0508 211.281 45.8086 212.477 44.2617L216.449 47.3555C213.262 52.2539 208.48 54.7031 202.105 54.7031ZM201.297 20.6016C198.672 20.6016 196.469 21.5625 194.688 23.4844C192.906 25.3828 191.805 28.0547 191.383 31.5H210.438V31.0078C210.25 27.7031 209.359 25.1484 207.766 23.3438C206.172 21.5156 204.016 20.6016 201.297 20.6016ZM242.887 21.7969C241.902 21.6328 240.836 21.5508 239.688 21.5508C235.422 21.5508 232.527 23.3672 231.004 27V54H224.5V15.9609H230.828L230.934 20.3555C233.066 16.957 236.09 15.2578 240.004 15.2578C241.27 15.2578 242.23 15.4219 242.887 15.75V21.7969ZM281.102 35.4023C281.102 41.2148 279.766 45.8906 277.094 49.4297C274.422 52.9453 270.836 54.7031 266.336 54.7031C261.531 54.7031 257.816 53.0039 255.191 49.6055L254.875 54H248.898V0H255.402V20.1445C258.027 16.8867 261.648 15.2578 266.266 15.2578C270.883 15.2578 274.504 17.0039 277.129 20.4961C279.777 23.9883 281.102 28.7695 281.102 34.8398V35.4023ZM274.598 34.6641C274.598 30.2344 273.742 26.8125 272.031 24.3984C270.32 21.9844 267.859 20.7773 264.648 20.7773C260.359 20.7773 257.277 22.7695 255.402 26.7539V43.207C257.395 47.1914 260.5 49.1836 264.719 49.1836C267.836 49.1836 270.262 47.9766 271.996 45.5625C273.73 43.1484 274.598 39.5156 274.598 34.6641Z" fill="#4CB3C1"/>
</g>
<defs>
<filter id="filter0_d" x="0.984375" y="0" width="284.117" height="62.7031" filterUnits="userSpaceOnUse" color-interpolation-filters="sRGB">
<feFlood flood-opacity="0" result="BackgroundImageFix"/>
<feColorMatrix in="SourceAlpha" type="matrix" values="0 0 0 0 0 0 0 0 0 0 0 0 0 0 0 0 0 0 127 0"/>
<feOffset dy="4"/>
<feGaussianBlur stdDeviation="2"/>
<feColorMatrix type="matrix" values="0 0 0 0 0 0 0 0 0 0 0 0 0 0 0 0 0 0 0.25 0"/>
<feBlend mode="normal" in2="BackgroundImageFix" result="effect1_dropShadow"/>
<feBlend mode="normal" in="SourceGraphic" in2="effect1_dropShadow" result="shape"/>
</filter>
</defs>
</svg>
